<svg xmlns="http://www.w3.org/2000/svg" width="170.304" height="228.578" viewBox="0 0 170.304 228.578"><defs><style>.a{opacity:0.3;}.b{fill:#85144b;}.c{fill:#fff;stroke:#85144b;stroke-miterlimit:10;stroke-width:5px;}</style></defs><g class="a" transform="translate(-132.201 4309.898)"><g transform="translate(132.201 -4309.898)"><path class="b" d="M264.607-4081.319H146.949a14.769,14.769,0,0,1-14.748-14.757V-4295.14a14.77,14.77,0,0,1,14.748-14.758h140.8A14.778,14.778,0,0,1,302.5-4295.14V-4120.9m-7.786-3.954V-4295.14a6.976,6.976,0,0,0-6.972-6.972h-140.8a6.974,6.974,0,0,0-6.964,6.972v199.063a6.974,6.974,0,0,0,6.964,6.972h113.96" transform="translate(-132.201 4309.897)"/></g><g transform="translate(171.401 -4261.788)"><rect class="b" width="91.895" height="7.785"/><g transform="translate(0 31.141)"><rect class="b" width="91.895" height="7.785"/></g><g transform="translate(0 62.283)"><rect class="b" width="91.895" height="7.785"/></g><g transform="translate(0 93.424)"><rect class="b" width="91.895" height="7.785"/></g><g transform="translate(0 124.565)"><rect class="b" width="60.754" height="7.785"/></g></g><path class="c" d="M216.044-4152.622v-37.553h37.3" transform="translate(44.482 63.517)"/></g></svg>