<svg xmlns="http://www.w3.org/2000/svg" width="16.42" height="16.42" viewBox="0 0 16.42 16.42"><defs><style>.a{fill:#ff4136;}</style></defs><path class="a" d="M10.71,2.5a8.21,8.21,0,1,0,8.21,8.21A8.217,8.217,0,0,0,10.71,2.5Zm5.323,12.6-2.264-2.264a2.633,2.633,0,0,1-.691,1.158L15.1,16.016a6.885,6.885,0,0,1-9.7-9.7L7.668,8.584a2.76,2.76,0,0,1,.674-1.175L6.32,5.4a6.9,6.9,0,0,1,11.3,5.306A7.053,7.053,0,0,1,16.033,15.1Z" transform="translate(-2.5 -2.5)"/><path class="a" d="M38.992,28.944h-.566a.606.606,0,0,1-.469-.238.733.733,0,0,1-.162-.549.686.686,0,0,1,.679-.641h.663a.428.428,0,0,1,.4.366.253.253,0,0,0,.242.22h.743a.281.281,0,0,0,.194-.092.317.317,0,0,0,.065-.22,1.776,1.776,0,0,0-1.438-1.666v-.732a.274.274,0,0,0-.259-.293h-.743a.274.274,0,0,0-.259.293v.75a2.108,2.108,0,0,0-1.535,2.306,2.046,2.046,0,0,0,1.955,1.922h.485a.606.606,0,0,1,.469.238.733.733,0,0,1,.162.549.686.686,0,0,1-.679.641h-.663a.428.428,0,0,1-.4-.366.266.266,0,0,0-.242-.22h-.743a.281.281,0,0,0-.194.092.317.317,0,0,0-.065.22,1.776,1.776,0,0,0,1.438,1.666v.732a.274.274,0,0,0,.259.293h.743a.274.274,0,0,0,.259-.293v-.769a2.087,2.087,0,0,0,1.535-1.867,2.3,2.3,0,0,0-.485-1.647A1.792,1.792,0,0,0,38.992,28.944Z" transform="translate(-30.509 -21.448)"/></svg>