<svg xmlns="http://www.w3.org/2000/svg" width="142.818" height="33.339" viewBox="0 0 142.818 33.339"><defs><style>.a{fill:#231f20;}.b{fill:#ff4136;}</style></defs><g transform="translate(-120.567 -71.424)"><g transform="translate(120.567 71.424)"><path class="a" d="M120.567,96.725l.077-17.457c.021-4.652,3.121-7.863,7.589-7.843,4.422.019,7.54,3.258,7.52,7.91l-.077,17.458c-.02,4.606-3.167,7.817-7.589,7.8C123.619,104.569,120.547,101.331,120.567,96.725Zm5.744-17.663-.079,17.873c-.008,1.935,1.05,2.169,1.879,2.173.783,0,1.844-.222,1.852-2.156l.079-17.873c.008-1.935-.958-2.169-1.833-2.173S126.319,77.127,126.311,79.062Z" transform="translate(-120.567 -71.424)"/><path class="a" d="M184.122,79.111l-5.574-.024c.008-1.75-1.05-2.17-1.879-2.174a1.579,1.579,0,0,0-1.711,1.651,6.7,6.7,0,0,0,1.321,3.184l5.537,8.27c2.2,3.326,2.557,5.216,2.546,7.611-.019,4.376-3.21,7.126-7.724,7.106a7.411,7.411,0,0,1-7.7-7.818l5.666.025a1.974,1.974,0,0,0,2.155,2.267,1.76,1.76,0,0,0,1.942-1.742c0-1.013-.177-1.659-1.412-3.507L171.749,85.6c-2.2-3.326-2.464-5.308-2.456-7.2.019-4.192,3.117-6.9,7.492-6.877A7.161,7.161,0,0,1,184.122,79.111Z" transform="translate(-149.36 -71.483)"/><path class="a" d="M227.574,79.394c.008-1.935-1.05-2.17-1.833-2.173-.829,0-1.89.222-1.9,2.157L223.764,97.3c-.009,1.98,1,2.169,1.879,2.173s1.843-.176,1.852-2.156l.011-2.349,5.712.025-.009,2.164c-.02,4.606-3.167,7.817-7.589,7.8-4.468-.019-7.54-3.258-7.52-7.864l.077-17.55c.021-4.606,3.121-7.817,7.589-7.8,4.422.02,7.541,3.258,7.52,7.864l-.009,2.027-5.712-.025Z" transform="translate(-178.626 -71.611)"/></g><g transform="translate(181.949 71.657)"><g transform="translate(0 0)"><path class="b" d="M284.223,95.723H272.235V73.034h5.721V90.26h6.267Z" transform="translate(-272.235 -72.616)"/><path class="b" d="M322.95,78.53h-7.07V82h5.367v4.949H315.88V90.26h7.07v5.463H310.191V73.034H322.95Z" transform="translate(-294.83 -72.616)"/><path class="b" d="M364.748,82.735v4.917c0,4.6-3.118,7.81-7.585,7.81s-7.585-3.214-7.585-7.81V79.843c0-4.628,3.117-7.842,7.585-7.842,4.4,0,7.488,3.149,7.585,7.649h-5.721c0-1.96-1-2.185-1.864-2.185-.9,0-1.865.225-1.865,2.185v8.2c0,1.928,1.093,2.153,1.865,2.153.8,0,1.864-.225,1.864-2.153v-.161H357.2V82.735Z" transform="translate(-318.276 -72.001)"/><path class="b" d="M403.468,91.9h-4.661l-.867,3.824h-5.72l5.913-22.689h6.106l5.817,22.689h-5.72ZM399.9,86.982h2.474l-1.189-6.4Z" transform="translate(-343.66 -72.616)"/><path class="b" d="M455.821,95.723H443.833V73.034h5.721V90.26h6.267Z" transform="translate(-374.385 -72.616)"/></g><rect class="b" width="81.436" height="4.413" transform="translate(0 28.122)"/></g></g></svg>