<svg xmlns="http://www.w3.org/2000/svg" width="54.821" height="73.579" viewBox="0 0 54.821 73.579"><defs><style>.a{opacity:0.3;}.b{fill:#fff;}.b,.d{stroke:#fff;}.c,.d{fill:#959595;}.d{stroke-miterlimit:10;stroke-width:5px;}</style></defs><g class="a" transform="translate(-132.201 4309.898)"><path class="b" d="M187.1-4247.752v-54.814a2.245,2.245,0,0,0-2.244-2.244H139.529a2.245,2.245,0,0,0-2.242,2.244v64.079a2.245,2.245,0,0,0,2.242,2.244h36.684" transform="translate(-2.58 -2.581)"/><g transform="translate(132.201 -4309.898)"><path class="c" d="M174.822-4236.318H136.948a4.754,4.754,0,0,1-4.747-4.75v-64.078a4.754,4.754,0,0,1,4.747-4.751h45.323a4.757,4.757,0,0,1,4.75,4.751v56.085m-2.506-1.272v-54.813a2.246,2.246,0,0,0-2.244-2.245H136.948a2.245,2.245,0,0,0-2.242,2.245v64.078a2.244,2.244,0,0,0,2.242,2.244h36.684" transform="translate(-132.201 4309.897)"/></g><g transform="translate(144.819 -4294.412)"><rect class="c" width="29.581" height="2.506"/><g transform="translate(0 10.024)"><rect class="c" width="29.581" height="2.506"/></g><g transform="translate(0 20.049)"><rect class="c" width="29.581" height="2.506"/></g><g transform="translate(0 30.073)"><rect class="c" width="29.581" height="2.506"/></g><g transform="translate(0 40.097)"><rect class="c" width="19.557" height="2.506"/></g></g><path class="d" d="M216.044-4178.087v-12.088H228.05" transform="translate(-42.535 -60.738)"/></g></svg>