<svg xmlns="http://www.w3.org/2000/svg" width="10.305" height="11.109" viewBox="0 0 10.305 11.109"><defs><style>.a{fill:#231f20;}.b{fill:#ff4136;}</style></defs><g transform="translate(-120.567 -71.424)"><g transform="translate(120.567 71.424)"><path class="a" d="M120.567,79.9l.026-5.847a2.533,2.533,0,1,1,5.061.022l-.026,5.848a2.532,2.532,0,1,1-5.061-.022Zm1.924-5.916-.027,5.986c0,.648.352.727.63.728.262,0,.618-.074.62-.722l.026-5.986c0-.648-.321-.726-.614-.728S122.494,73.334,122.491,73.982Z" transform="translate(-120.567 -71.424)"/></g><g transform="translate(126.855 71.642)"><g transform="translate(0 0)"><path class="b" d="M276.25,80.634h-4.015v-7.6h1.916V78.8h2.1Z" transform="translate(-272.235 -73.034)"/></g><rect class="b" width="4.017" height="1.478" transform="translate(0 9.28)"/></g></g></svg>