<svg xmlns="http://www.w3.org/2000/svg" width="137.635" height="109.234" viewBox="0 0 137.635 109.234"><defs><style>.a{fill:#85144b;}.b{fill:#ff4136;}</style></defs><g transform="translate(-2.75 -14.5)"><g transform="translate(2.75 14.5)"><rect class="a" width="4" height="50" transform="translate(13.624 26.239)"/><rect class="a" width="2.913" height="50.976" transform="translate(31.062 26.216)"/><rect class="a" width="2.913" height="50.976" transform="translate(47.195 26.216)"/><rect class="a" width="2.913" height="50.976" transform="translate(63.327 26.216)"/><rect class="a" width="2.913" height="50.976" transform="translate(79.461 26.216)"/><rect class="a" width="2.913" height="50.976" transform="translate(95.594 26.216)"/><rect class="a" width="2.913" height="50.976" transform="translate(111.727 26.216)"/><rect class="a" width="2.913" height="50.976" transform="translate(22.995 26.216)"/><rect class="a" width="2.913" height="50.976" transform="translate(39.128 26.216)"/><rect class="a" width="2.913" height="50.976" transform="translate(55.261 26.216)"/><rect class="a" width="2.913" height="50.976" transform="translate(71.395 26.216)"/><rect class="a" width="2.913" height="50.976" transform="translate(87.527 26.216)"/><rect class="a" width="2.913" height="50.976" transform="translate(103.66 26.216)"/><rect class="a" width="3" height="50" transform="translate(119.624 26.239)"/><path class="b" d="M98.858,30.521h2.913V15.956a1.456,1.456,0,0,0-1.456-1.456H85.75v2.913H98.858Z" transform="translate(35.136 -14.5)"/><path class="b" d="M99.358,78.5V91.608H86.25v2.913h14.565a1.456,1.456,0,0,0,1.456-1.456V78.5Z" transform="translate(35.364 14.713)"/><path class="b" d="M5.663,17.413H18.771V14.5H4.206A1.456,1.456,0,0,0,2.75,15.956V30.521H5.663Z" transform="translate(-2.75 -14.5)"/><path class="b" d="M5.663,78.5H2.75V93.065a1.456,1.456,0,0,0,1.456,1.456H18.771V91.608H5.663Z" transform="translate(-2.75 14.713)"/></g></g></svg>