<svg xmlns="http://www.w3.org/2000/svg" width="121.293" height="121.293" viewBox="0 0 121.293 121.293"><defs><style>.a{fill:#85144b;}</style></defs><g transform="translate(0 0)"><path class="a" d="M63.7,22.127a2.022,2.022,0,0,0-2.928,0L36.512,46.386,31.075,40.74a1.9,1.9,0,0,0-1.464-.627,2.259,2.259,0,0,0-1.464.627l-7.319,7.319a2.022,2.022,0,0,0,0,2.928L35.048,65.207a2.259,2.259,0,0,0,1.464.627,1.9,1.9,0,0,0,1.464-.627L45.3,58.1,71.017,32.375a2.022,2.022,0,0,0,0-2.928ZM42.367,55.169l-5.856,5.646L25.219,49.523l4.392-4.392,5.437,5.646a2.022,2.022,0,0,0,2.928,0L62.234,26.519l4.392,4.392Z" transform="translate(15.77 17.188)"/><path class="a" d="M33.091,20.985a1.976,1.976,0,0,0,2.091-2.091V5.091a2.091,2.091,0,1,0-4.182,0v13.8A1.976,1.976,0,0,0,33.091,20.985Z" transform="translate(27.555 -3)"/><path class="a" d="M33.091,52.4A1.976,1.976,0,0,0,31,54.491v13.8a2.091,2.091,0,0,0,4.182,0v-13.8A1.976,1.976,0,0,0,33.091,52.4Z" transform="translate(27.555 50.908)"/><path class="a" d="M68.294,31h-13.8a2.091,2.091,0,1,0,0,4.182h13.8a2.091,2.091,0,0,0,0-4.182Z" transform="translate(50.908 27.555)"/><path class="a" d="M20.985,33.091A1.976,1.976,0,0,0,18.894,31H5.091a2.091,2.091,0,1,0,0,4.182h13.8A1.976,1.976,0,0,0,20.985,33.091Z" transform="translate(-3 27.555)"/><path class="a" d="M49.655,46.727a2.07,2.07,0,0,0-2.928,2.928l9.829,9.829a2.022,2.022,0,0,0,2.928,0,2.022,2.022,0,0,0,0-2.928Z" transform="translate(44.033 44.033)"/><path class="a" d="M14.755,11.827a2.07,2.07,0,1,0-2.928,2.928l9.829,9.829a2.022,2.022,0,0,0,2.928,0,2.022,2.022,0,0,0,0-2.928Z" transform="translate(5.948 5.948)"/><path class="a" d="M21.656,46.727l-9.829,9.829a2.022,2.022,0,0,0,0,2.928,2.259,2.259,0,0,0,1.464.627,2.259,2.259,0,0,0,1.464-.627l9.829-9.829a2.07,2.07,0,0,0-2.928-2.928Z" transform="translate(5.948 44.033)"/><path class="a" d="M48.191,25.211a1.9,1.9,0,0,0,1.464-.627l9.829-9.829a2.07,2.07,0,0,0-2.928-2.928l-9.829,9.829a2.022,2.022,0,0,0,0,2.928A1.9,1.9,0,0,0,48.191,25.211Z" transform="translate(44.033 5.948)"/></g></svg>