<svg xmlns="http://www.w3.org/2000/svg" width="16" height="16" viewBox="0 0 16 16"><defs><style>.a,.d{fill:none;}.a{stroke:#85144b;stroke-width:1.5px;}.b{fill:#85144b;}.c{stroke:none;}</style></defs><g transform="translate(-0.296 -0.366)"><g class="a" transform="translate(0.296 0.366)"><circle class="c" cx="8" cy="8" r="8"/><circle class="d" cx="8" cy="8" r="7.25"/></g><path class="b" d="M38.992,28.494h-.566a.636.636,0,0,1-.469-.21A.6.6,0,0,1,37.8,27.8a.656.656,0,0,1,.679-.566h.663a.414.414,0,0,1,.4.323.244.244,0,0,0,.242.194h.743a.3.3,0,0,0,.194-.081.258.258,0,0,0,.065-.194A1.649,1.649,0,0,0,39.348,26v-.646a.255.255,0,0,0-.259-.259h-.743a.255.255,0,0,0-.259.259v.663a1.884,1.884,0,0,0-1.535,2.036,1.947,1.947,0,0,0,1.955,1.7h.485a.636.636,0,0,1,.469.21.6.6,0,0,1,.162.485.656.656,0,0,1-.679.566h-.663a.414.414,0,0,1-.4-.323.257.257,0,0,0-.242-.194h-.743a.3.3,0,0,0-.194.081.258.258,0,0,0-.065.194,1.649,1.649,0,0,0,1.438,1.471v.646a.255.255,0,0,0,.259.259h.743a.255.255,0,0,0,.259-.259V32.21a1.919,1.919,0,0,0,1.535-1.648,1.865,1.865,0,0,0-.485-1.454A1.884,1.884,0,0,0,38.992,28.494Z" transform="translate(-30.384 -21.201)"/></g></svg>