<svg xmlns="http://www.w3.org/2000/svg" width="20.005" height="19.448" viewBox="0 0 20.005 19.448"><defs><style>.a{fill:#85144b;}</style></defs><path class="a" d="M64.962,5.773a4.066,4.066,0,1,0,4.066,4.066A4.066,4.066,0,0,0,64.962,5.773Zm1.767,4.679H65.575v1.154a.614.614,0,0,1-1.227,0V10.452H63.194a.613.613,0,0,1,0-1.227h1.154V8.071a.614.614,0,0,1,1.227,0V9.226h1.154a.613.613,0,1,1,0,1.227Z" transform="translate(-49.022 -5.773)"/><path class="a" d="M17.934,28.024a6.613,6.613,0,0,1,.577,2.274H17.2a.492.492,0,0,0,0,.984h1.3a6.625,6.625,0,0,1-6.172,6.1V36.149a.492.492,0,0,0-.985,0v1.227a6.628,6.628,0,0,1-6.069-6.094h1.2a.492.492,0,0,0,0-.984H5.279a6.628,6.628,0,0,1,6.073-6.143V25.43a.492.492,0,0,0,.985,0V24.147a6.581,6.581,0,0,1,2.736.8,5.078,5.078,0,0,1-.265-1.568,7.93,7.93,0,1,0,4.674,5.016A5.06,5.06,0,0,1,17.934,28.024Z" transform="translate(-3.948 -19.265)"/><path class="a" d="M40.091,59.482a.519.519,0,1,0-.519-.519A.519.519,0,0,0,40.091,59.482Z" transform="translate(-32.144 -47.461)"/><path class="a" d="M29.381,47.433a1.342,1.342,0,0,0-.224.02L27.147,45.6a.423.423,0,0,0-.619.556l1.625,2.2a1.309,1.309,0,0,0-.052.364,1.272,1.272,0,0,0,.111.52L26.1,52.405a.422.422,0,0,0,.66.505l2.532-2.92c.029,0,.057.006.087.006a1.282,1.282,0,0,0,0-2.563Zm0,2.159a.878.878,0,1,1,.878-.878A.878.878,0,0,1,29.381,49.592Z" transform="translate(-21.434 -37.213)"/></svg>